<?xml version="1.0" standalone="no"?>
<!DOCTYPE svg PUBLIC "-//W3C//DTD SVG 20010904//EN"
 "http://www.w3.org/TR/2001/REC-SVG-20010904/DTD/svg10.dtd">
<svg version="1.0" xmlns="http://www.w3.org/2000/svg"
 width="404.000000pt" height="316.000000pt" viewBox="0 0 404.000000 316.000000"
 preserveAspectRatio="xMidYMid meet">

<g transform="translate(0.000000,316.000000) scale(0.100000,-0.100000)"
fill="#000000" stroke="none">
<path d="M2308 2279 c-37 -14 -42 -36 -18 -76 15 -26 19 -45 14 -72 l-6 -36
20 31 c26 41 88 91 129 105 42 14 42 26 -2 45 -39 16 -97 17 -137 3z"/>
<path d="M3161 2280 c-18 -4 -40 -15 -49 -23 -13 -14 -13 -20 7 -58 15 -28 20
-51 16 -68 -6 -25 -5 -25 20 7 27 33 101 82 132 86 47 7 8 51 -52 59 -22 3
-55 2 -74 -3z"/>
<path d="M2543 2093 c-9 -3 -13 -36 -13 -114 0 -88 -3 -111 -15 -115 -12 -5
-15 -30 -15 -139 0 -150 -3 -145 81 -145 l49 0 0 138 c0 162 7 180 94 238 l55
36 50 -32 c28 -17 64 -47 79 -65 28 -32 30 -38 37 -168 8 -149 7 -147 78 -147
64 0 67 8 67 151 0 120 -2 131 -19 136 -17 4 -20 18 -26 111 -4 60 -12 110
-19 114 -12 8 -464 9 -483 1z"/>
<path d="M2015 1901 c-102 -66 -127 -90 -150 -143 -16 -40 -20 -105 -6 -126 5
-9 10 0 15 28 9 57 38 111 80 148 25 21 34 37 30 49 -4 13 -3 15 4 5 8 -12 14
-11 40 2 51 26 152 37 197 21 11 -4 -7 11 -40 34 -33 22 -64 41 -70 41 -5 0
-50 -27 -100 -59z m139 26 c16 -12 16 -13 -3 -13 -11 0 -17 4 -14 9 3 5 0 7
-8 5 -8 -3 -13 -11 -11 -17 2 -12 -11 -15 -21 -4 -6 6 21 32 34 33 3 0 13 -6
23 -13z m-82 -14 c-6 -2 -10 -8 -8 -12 3 -4 -5 -8 -16 -8 -20 -2 -20 -1 -2 12
11 8 24 14 29 14 6 0 4 -3 -3 -6z m-110 -70 c-6 -2 -10 -8 -8 -12 3 -4 -1 -8
-9 -8 -11 0 -12 4 -4 14 6 7 17 13 23 12 7 0 6 -2 -2 -6z m-38 -39 c3 -8 2
-12 -4 -9 -6 3 -10 1 -10 -4 0 -6 -5 -11 -10 -11 -6 0 -5 8 2 20 15 24 14 24
22 4z"/>
<path d="M915 1734 c-96 -65 -150 -92 -230 -115 -33 -10 -51 -18 -40 -18 39
-2 208 51 229 71 27 27 110 65 160 74 l40 7 -23 18 c-13 11 -31 19 -40 18 -9
0 -52 -25 -96 -55z"/>
<path d="M1608 1593 c6 -2 18 -2 25 0 6 3 1 5 -13 5 -14 0 -19 -2 -12 -5z"/>
<path d="M686 1552 c-82 -28 -110 -93 -53 -124 12 -6 60 -21 106 -32 47 -12
86 -27 89 -33 6 -19 -47 -62 -85 -69 -19 -4 -62 -1 -95 6 -56 12 -62 12 -74
-5 -23 -31 -16 -45 29 -65 97 -45 216 -7 263 82 33 64 1 109 -92 129 -32 7
-72 19 -88 27 -28 14 -29 15 -11 28 10 8 41 14 67 14 52 0 71 18 48 45 -16 19
-43 18 -104 -3z"/>
<path d="M2601 1533 c-22 -15 -85 -132 -122 -225 -19 -50 -20 -53 -3 -65 36
-27 48 -15 107 103 34 68 63 114 70 112 7 -2 35 -50 62 -106 71 -144 97 -135
44 16 -45 131 -110 199 -158 165z"/>
<path d="M3149 1518 c-9 -22 -14 -75 -14 -158 l0 -125 32 1 c45 2 152 71 171
111 38 79 -55 203 -151 203 -18 0 -28 -9 -38 -32z m99 -49 c57 -59 51 -109
-20 -145 -54 -28 -61 -21 -55 54 5 70 20 122 36 122 5 0 22 -14 39 -31z"/>
<path d="M1943 1528 c-22 -11 -23 -16 -23 -160 0 -137 1 -149 18 -146 13 2 18
15 20 51 2 26 5 47 8 47 2 0 22 -18 45 -41 62 -62 149 -90 163 -53 9 24 0 31
-58 48 -29 9 -64 25 -77 36 l-24 19 23 1 c60 1 110 59 97 112 -4 14 -22 40
-40 58 -27 26 -44 34 -82 36 -26 2 -58 -1 -70 -8z m113 -73 c28 -28 28 -52 2
-68 -23 -15 -65 5 -80 38 -10 22 -8 28 8 40 27 21 41 18 70 -10z"/>
<path d="M1271 1508 c-4 -13 -18 -77 -31 -142 -23 -127 -19 -171 17 -164 18 3
28 28 38 91 3 20 10 37 16 37 5 0 20 -25 34 -55 37 -84 80 -73 109 29 16 56
39 85 51 67 3 -6 11 -39 16 -73 12 -73 14 -78 40 -78 32 0 32 22 1 139 -31
114 -55 165 -75 158 -7 -2 -28 -46 -47 -97 -19 -51 -40 -95 -47 -97 -10 -4
-28 46 -48 132 -9 40 -32 75 -50 75 -9 0 -19 -10 -24 -22z"/>
<path d="M3055 1493 c-12 -68 -24 -108 -40 -128 -14 -19 -17 -17 -77 48 -89
95 -102 92 -118 -35 -9 -75 -4 -108 15 -108 15 0 25 31 25 78 0 40 10 41 33 3
29 -49 76 -82 110 -79 49 5 70 52 75 165 3 62 1 93 -6 93 -6 0 -14 -17 -17
-37z"/>
<path d="M1007 1493 c-25 -28 -98 -186 -100 -219 -2 -24 2 -29 23 -32 22 -2
30 7 75 98 27 55 54 99 60 97 9 -3 85 -141 96 -176 3 -8 10 -11 16 -8 9 6 8
22 -3 60 -47 159 -117 235 -167 180z"/>
<path d="M2212 1378 c3 -110 6 -133 18 -133 10 0 17 14 20 43 l5 43 37 -31
c20 -17 53 -37 73 -46 33 -14 39 -14 61 1 27 18 24 35 -7 35 -25 0 -91 33
-108 54 -11 13 -3 26 54 88 51 55 63 74 51 76 -10 2 -42 -19 -76 -52 -74 -71
-89 -73 -80 -8 8 49 1 62 -33 62 -16 0 -17 -11 -15 -132z"/>
<path d="M1691 1444 c-41 -64 -85 -170 -78 -188 4 -9 15 -16 27 -16 15 0 31
21 65 91 27 52 51 89 58 86 7 -2 30 -40 52 -85 22 -45 44 -82 49 -82 26 0 -32
165 -74 210 -40 43 -65 39 -99 -16z"/>
<path d="M2618 1319 c-22 -13 -23 -55 -2 -63 26 -10 76 22 72 47 -3 25 -41 34
-70 16z"/>
<path d="M1027 1313 c-4 -3 -7 -17 -7 -30 0 -17 6 -23 23 -23 33 0 62 23 54
44 -6 16 -57 23 -70 9z"/>
<path d="M1727 1313 c-13 -12 -7 -41 9 -47 31 -12 54 -6 54 14 0 27 -46 51
-63 33z"/>
<path d="M1477 1133 c-4 -3 -7 -21 -7 -40 0 -27 4 -33 21 -33 13 0 18 4 13 12
-11 18 -12 48 -2 48 5 0 6 5 3 10 -7 12 -19 13 -28 3z"/>
<path d="M1537 1134 c-11 -11 -8 -74 3 -74 6 0 10 9 10 21 0 21 0 21 20 -2 10
-13 20 -22 20 -19 8 38 8 70 0 75 -6 3 -10 -4 -10 -17 l0 -23 -18 23 c-10 13
-21 20 -25 16z"/>
<path d="M1640 1111 c0 -17 -4 -31 -10 -31 -5 0 -10 -4 -10 -10 0 -16 27 -11
34 6 9 24 7 52 -4 59 -6 4 -10 -7 -10 -24z"/>
<path d="M1690 1125 c-24 -29 8 -75 44 -62 30 12 14 77 -20 77 -6 0 -17 -7
-24 -15z m43 -19 c7 -16 -1 -26 -20 -26 -7 0 -13 9 -13 20 0 23 25 27 33 6z"/>
<path d="M1774 1125 c5 -11 11 -30 13 -42 7 -30 23 -30 23 0 0 13 6 29 13 36
10 12 9 13 -7 7 -10 -3 -26 -1 -34 6 -14 11 -15 10 -8 -7z"/>
<path d="M1891 1100 c1 -25 3 -37 6 -27 6 21 33 23 33 1 0 -8 5 -12 10 -9 6 3
10 19 10 35 0 16 -4 32 -10 35 -5 3 -10 -1 -10 -9 0 -21 -17 -20 -29 2 -8 13
-10 7 -10 -28z"/>
<path d="M1978 1115 c-20 -45 38 -79 62 -36 13 25 13 27 -6 45 -22 23 -43 20
-56 -9z m47 -16 c0 -7 -8 -15 -17 -17 -18 -3 -25 18 -11 32 10 10 28 1 28 -15z"/>
<path d="M2073 1124 c-4 -11 1 -22 12 -30 17 -13 17 -14 2 -14 -9 0 -17 -4
-17 -10 0 -16 30 -12 36 5 4 8 1 22 -6 30 -9 11 -9 15 -1 15 7 0 9 5 6 10 -9
15 -25 12 -32 -6z"/>
<path d="M2147 1133 c-4 -3 -7 -22 -7 -41 l0 -34 25 23 c29 28 32 44 9 53 -19
7 -19 7 -27 -1z"/>
<path d="M2223 1100 c0 -25 2 -35 4 -22 2 12 2 32 0 45 -2 12 -4 2 -4 -23z"/>
<path d="M2267 1103 c3 -21 7 -40 9 -42 7 -8 11 3 17 42 5 32 3 37 -13 37 -16
0 -18 -5 -13 -37z"/>
<path d="M2330 1116 c-14 -38 -14 -64 2 -48 8 8 17 8 31 0 18 -9 19 -8 13 18
-4 16 -14 35 -21 43 -12 12 -16 11 -25 -13z"/>
<path d="M2505 1130 c-3 -5 -1 -10 4 -10 6 0 12 -15 12 -32 2 -28 2 -29 6 -8
3 14 9 29 14 35 5 5 9 13 9 17 0 12 -38 10 -45 -2z"/>
<path d="M2570 1127 c0 -9 5 -19 10 -22 6 -3 10 -16 10 -28 0 -31 17 -9 25 33
4 24 3 31 -4 21 -8 -12 -12 -12 -25 -2 -13 11 -16 11 -16 -2z"/>
<path d="M2400 1100 c0 -30 23 -51 38 -35 4 4 1 10 -5 12 -7 3 -13 16 -13 29
0 13 -4 24 -10 24 -5 0 -10 -14 -10 -30z"/>
<path d="M2460 1095 c0 -19 5 -35 10 -35 6 0 10 16 10 35 0 19 -4 35 -10 35
-5 0 -10 -16 -10 -35z"/>
</g>
</svg>
